# xmcd
# Track frame offsets:
# 150
# 20504
# 41133
# 69849
# 88766
# 106993
# 124970
# 142491
# 161988
# 179642
#
# Disc length: 2690 seconds
# Revision: 0
# Processed by: cddbd v1.5.2PL0 Copyright (c) Steve Scherf et al.
# Submitted via: VisiTrax 2.11.3.279 - For more info visit www.synapsa.com
#
DISCID=980a800a
DTITLE=Hillbilly Fishermen. The - Continuing Adventures Of The Hillbilly Fish
DTITLE=ermen
DYEAR=2018
DGENRE=Country
TTITLE0=Fishing Town
TTITLE1=Anglin' Annie
TTITLE2=Legend Of Curly's  Bend. The
TTITLE3=Empty Chair. The
TTITLE4=Wilko and The Fire
TTITLE5=Fishermen Never Lie
TTITLE6=When A King Tide Meets A Full Moon
TTITLE7=Wake Up
TTITLE8=Those Starry Skies
TTITLE9=Darling Downs. The
EXTD=
EXTT0=
EXTT1=
EXTT2=
EXTT3=
EXTT4=
EXTT5=
EXTT6=
EXTT7=
EXTT8=
EXTT9=
PLAYORDER=
